<svg width="269" height="73" viewBox="0 0 269 73" fill="none" xmlns="http://www.w3.org/2000/svg">
<g clip-path="url(#clip0_291_312)">
<path fill-rule="evenodd" clip-rule="evenodd" d="M39.0576 39.6137C33.9562 36.77 34.3142 28.9228 41.4562 28.4009C45.8954 28.0769 50.8895 30.7226 54.4874 32.6484C57.5483 34.2682 66.0865 39.8116 67.2858 43.3033C67.6438 44.3111 68.9863 45.0491 69.577 45.859C70.8837 47.6588 71.3849 48.7747 71.546 49.2066C71.7071 49.6386 72.0651 49.9445 71.9577 50.5025C71.9577 50.5745 72.4947 51.2404 72.6737 51.3124C73.0854 51.5104 73.0317 51.9603 73.3002 52.3023C73.7119 52.8422 73.7119 52.8782 73.8014 53.1482C73.8551 53.3102 73.8014 53.3462 74.1594 54.0121C74.2668 54.2281 74.5353 54.876 74.6606 55.128C74.9649 55.6859 75.3587 56.6398 75.0723 56.6218C74.8396 56.6038 74.7143 56.4418 74.7143 56.0099C74.7143 56.0099 74.589 55.9559 74.3563 55.6319C74.1057 55.2719 73.9804 54.822 73.694 54.624C73.0138 54.1741 73.2107 53.7061 73.1212 53.4541C73.0496 53.2382 72.62 53.1842 72.5305 53.0042C72.3157 52.5182 72.2262 52.5362 71.9577 52.3383C71.4207 51.9243 71.009 51.6183 70.651 51.2224C70.1319 50.6464 69.9171 50.2685 69.6128 50.1605C68.2703 49.7106 68.2882 49.3146 68.0376 49.1166C67.6975 48.8646 67.5543 49.0446 67.7333 49.4406C68.0555 50.1425 68.3956 50.1245 68.9326 50.9704C70.0066 52.6622 69.7202 51.9243 70.0245 52.3923C70.2393 52.7342 70.0782 52.8242 70.3646 53.1302C70.4183 53.2022 70.6868 53.2382 70.7405 53.5081C70.7763 53.6701 71.1343 54.318 71.2775 54.408C71.6534 54.66 71.6892 54.714 71.7608 55.146C71.9219 55.9199 72.1546 55.6139 72.4589 56.2438C72.4947 56.2978 72.7453 56.7658 72.7811 56.8198C72.9422 56.9818 73.6582 57.7557 73.6403 58.2236C73.6403 58.4396 74.0699 59.0335 74.231 59.6095C74.3026 59.8974 74.4816 60.1674 74.5532 60.5094C74.7143 61.2113 74.2668 60.8513 74.2131 60.7793C73.8551 60.2934 73.8014 59.7355 73.2286 59.0155C72.5484 58.1516 72.6558 58.2056 71.9577 57.3957C71.0806 56.4058 70.8658 56.2438 69.8634 55.182C68.9684 54.2101 68.5209 53.3642 67.6259 52.8602C67.4827 52.7702 67.4648 53.3462 68.2524 54.1381C68.4493 54.336 68.7894 54.57 68.8431 54.858C68.9505 55.4699 69.1116 55.5599 69.2369 55.9919C69.3443 56.3158 69.7918 56.5138 69.8992 56.8378C69.9887 57.1257 70.0961 57.5757 70.5257 57.7737C70.9911 57.9896 70.8121 57.8097 70.9911 58.3316C71.0985 58.6196 71.725 59.9154 71.8861 60.0594C72.0651 60.2394 72.083 60.3474 72.1546 60.9233C72.1546 61.0673 72.5663 61.3733 72.6379 61.5893C72.7632 61.9672 72.9422 62.5611 73.1212 62.8851C73.2644 63.1551 73.4613 63.2091 73.4971 63.479C73.5866 63.983 74.1773 65.0449 74.3921 65.2428C74.5711 65.4228 74.5174 65.7468 74.5711 66.0348C74.6069 66.2687 74.6069 66.7907 74.6427 66.8987C74.7322 67.2046 74.6427 67.2406 74.7859 67.6006C75.0902 68.4645 75.305 68.5365 75.4661 68.9504C75.6093 69.2744 75.4661 69.3824 75.5735 69.4904C75.6451 69.5624 75.2871 69.8863 75.8062 70.4443C76.3074 70.9842 76.2895 71.2542 76.3969 71.6142C76.4685 71.8301 76.5043 72.1001 76.3969 72.3701C76.1821 72.856 76.6475 73.162 75.7883 72.874C75.6451 72.82 75.6272 72.1721 75.5556 71.9921C74.9828 70.2643 74.0699 67.9785 73.2286 66.1607C72.5842 64.7749 72.083 63.1731 71.1701 61.8412C70.9553 61.5353 70.4362 61.1213 70.2035 60.8693C69.6844 60.2934 69.1116 59.4475 68.5567 58.7456C67.5006 57.4137 66.534 57.3237 65.9254 56.2258C65.102 54.75 63.8669 53.5801 62.8466 52.6982C59.6246 49.8725 56.1163 47.1368 52.7332 45.337C48.3835 43.0333 42.9956 41.8094 39.0576 39.6317V39.6137Z" fill="#00A651"/>
<path fill-rule="evenodd" clip-rule="evenodd" d="M32.6314 26.6011C25.7579 28.8328 14.821 25.3772 9.20044 21.1297C5.67416 18.448 1.44978 14.1105 0.339984 9.66495C-0.96671 4.55351 4.40327 1.25987 7.98325 4.67949C9.91644 6.53329 11.6169 9.70094 13.1742 11.9687C17.5418 18.322 25.1314 23.6674 32.6851 25.3232C33.5264 25.5032 33.7949 26.2231 32.6314 26.6011Z" fill="#ED1C24"/>
<path fill-rule="evenodd" clip-rule="evenodd" d="M31.2712 20.7157C29.2664 17.89 27.727 15.2983 26.7962 11.9687C25.8296 8.49507 24.5945 -0.305966 30.5552 2.91568C33.6698 4.60749 34.1531 3.56361 36.3906 1.43984C38.9682 -1.02589 43.2284 -0.53994 42.4408 4.5355C41.6711 9.53895 38.8071 15.7663 36.3369 20.1038C34.5648 23.2175 33.9204 24.4593 31.2712 20.7157Z" fill="#034EA2"/>
<path fill-rule="evenodd" clip-rule="evenodd" d="M36.6949 25.4672C39.0219 19.4379 43.0852 14.0745 48.8848 10.6188C53.6104 7.81114 58.7834 6.40729 63.9386 7.95512C66.6773 8.76504 67.268 9.62894 66.1224 12.2027C62.5245 20.2658 55.3288 24.0274 46.164 25.2692C45.5912 25.3412 45.269 25.0892 46.0924 24.6573C48.849 23.4334 52.25 21.2377 54.4875 18.196C56.0805 16.0182 55.5794 15.1003 52.966 15.6403C46.4683 16.9901 41.6174 21.6876 37.5899 25.9172C36.7486 26.7991 36.2653 26.6011 36.7128 25.4672H36.6949Z" fill="#00A651"/>
<path fill-rule="evenodd" clip-rule="evenodd" d="M269 46.4349H259.424V60.2394H255.862V46.4349H246.249V43.2673H263.308L263.344 31.7665H248.379V28.5629H266.852V43.2673H269V46.4349Z" fill="#00A651"/>
<path fill-rule="evenodd" clip-rule="evenodd" d="M238.141 38.4258V34.8982H226.756V38.4258H238.141ZM241.703 41.5574H223.23V28.5449H226.756V31.7125H238.141V28.5449H241.703V41.5574Z" fill="#00A651"/>
<path fill-rule="evenodd" clip-rule="evenodd" d="M243.751 47.1677H234.174V49.2554H241.621V60.2162H238.059V52.4231H222.915V49.2554H230.576V47.1677H221V44H243.751V47.1677Z" fill="#00A651"/>
<path fill-rule="evenodd" clip-rule="evenodd" d="M217.001 60.2394H213.474V28.5989H217.001V60.2394Z" fill="#00A651"/>
<path fill-rule="evenodd" clip-rule="evenodd" d="M211.434 48.3427H207.782L202.931 34.0343L198.134 48.3787H194.447L201.016 28.5989H204.829L211.434 48.3427Z" fill="#00A651"/>
<path fill-rule="evenodd" clip-rule="evenodd" d="M181.254 36.482C181.254 35.1681 180.825 34.0523 179.984 33.1344C179.142 32.2165 178.122 31.7665 176.941 31.7665C175.759 31.7665 174.703 32.2165 173.862 33.1344C173.021 34.0523 172.591 35.1681 172.591 36.482C172.591 37.7959 173.021 38.8937 173.862 39.8116C174.721 40.7295 175.741 41.1975 176.923 41.1975C178.104 41.1975 179.124 40.7475 179.966 39.8296C180.807 38.9117 181.237 37.7959 181.237 36.482H181.254ZM184.709 36.482C184.709 38.7318 183.957 40.6755 182.436 42.2774C180.914 43.8792 179.089 44.6891 176.959 44.6891C174.828 44.6891 172.967 43.8972 171.463 42.3134C169.96 40.7295 169.19 38.7858 169.19 36.482C169.19 34.1783 169.942 32.2525 171.463 30.6506C172.967 29.0488 174.811 28.2389 176.959 28.2389C179.107 28.2389 180.896 29.0488 182.436 30.6506C183.975 32.2525 184.727 34.1963 184.727 36.482H184.709Z" fill="#00A651"/>
<path fill-rule="evenodd" clip-rule="evenodd" d="M191.261 60.2394H187.716V50.8984H171.445V47.6948H191.261V60.2394Z" fill="#00A651"/>
<path fill-rule="evenodd" clip-rule="evenodd" d="M191.261 46.003H187.717V42.0434H181.81V38.8217H187.717V34.1782H181.81V31.0106H187.717V28.5629H191.261V46.003Z" fill="#00A651"/>
<path fill-rule="evenodd" clip-rule="evenodd" d="M159.023 53.7781C159.023 52.4822 158.611 51.3844 157.788 50.5025C156.964 49.6206 155.98 49.1706 154.816 49.1706C153.653 49.1706 152.668 49.6206 151.845 50.5025C151.022 51.3844 150.61 52.4822 150.61 53.7781C150.61 55.074 151.022 56.1359 151.845 57.0538C152.668 57.9717 153.653 58.4216 154.816 58.4216C155.98 58.4216 156.964 57.9717 157.788 57.0538C158.611 56.1359 159.023 55.056 159.023 53.7781ZM162.639 53.7781C162.639 55.9559 161.887 57.8277 160.365 59.3395C158.844 60.8693 157 61.6253 154.816 61.6253C152.633 61.6253 150.789 60.8693 149.268 59.3575C147.746 57.8457 146.976 55.9919 146.976 53.7781C146.976 51.5643 147.746 49.7645 149.268 48.2347C150.807 46.7049 152.651 45.931 154.799 45.931C156.947 45.931 158.79 46.7049 160.33 48.2347C161.869 49.7645 162.621 51.6183 162.621 53.7781H162.639Z" fill="#00A651"/>
<path fill-rule="evenodd" clip-rule="evenodd" d="M142.072 44.4551V41.2695H146.207V35.0782H149.769V41.2695H159.793V28.5989H163.391V35.8341H166.237V39.0017H163.391V44.4551H142.072Z" fill="#00A651"/>
<path fill-rule="evenodd" clip-rule="evenodd" d="M156.982 39.8656H153.42V31.7305H142.716V28.5989H156.982V39.8656Z" fill="#00A651"/>
<path fill-rule="evenodd" clip-rule="evenodd" d="M139.243 47.5868H129.667V60.2394H126.105V47.5868H116.493V44.4191H139.243V47.5868Z" fill="#00A651"/>
<path fill-rule="evenodd" clip-rule="evenodd" d="M138.527 42.1334L134.07 42.1514L127.859 34.8982L121.648 42.1514L117.173 42.1334L125.944 31.7665H118.05V28.5989H137.686V31.7665H129.756L138.527 42.1334Z" fill="#00A651"/>
<path fill-rule="evenodd" clip-rule="evenodd" d="M107.024 53.7781C107.024 52.4822 106.612 51.3844 105.789 50.5025C104.965 49.6206 103.981 49.1706 102.817 49.1706C101.654 49.1706 100.669 49.6206 99.8457 50.5025C99.0224 51.3844 98.6107 52.4822 98.6107 53.7781C98.6107 55.074 99.0224 56.1359 99.8457 57.0538C100.669 57.9717 101.654 58.4216 102.817 58.4216C103.981 58.4216 104.983 57.9717 105.789 57.0538C106.612 56.1359 107.024 55.056 107.024 53.7781ZM110.657 53.7781C110.657 55.9559 109.888 57.8277 108.366 59.3395C106.845 60.8693 105.001 61.6253 102.817 61.6253C100.633 61.6253 98.7897 60.8693 97.2682 59.3575C95.7467 57.8457 94.9949 55.9919 94.9949 53.7781C94.9949 51.5643 95.7646 49.7645 97.2861 48.2347C98.8255 46.7049 100.669 45.931 102.817 45.931C104.965 45.931 106.827 46.7049 108.348 48.2347C109.888 49.7645 110.639 51.6183 110.639 53.7781H110.657Z" fill="#00A651"/>
<path fill-rule="evenodd" clip-rule="evenodd" d="M90.0725 44.4551V41.2875H94.2074V35.0962H97.7695V41.2875H107.793V28.5989H111.391V35.8341H114.237V39.0017H111.391V44.4551C104.285 44.4551 97.1788 44.4551 90.0725 44.4551Z" fill="#00A651"/>
<path fill-rule="evenodd" clip-rule="evenodd" d="M104.983 39.8656H101.421V31.7305H90.7168V28.5989H104.983V39.8656Z" fill="#00A651"/>
<path fill-rule="evenodd" clip-rule="evenodd" d="M30.8236 40.4056H31.2174V43.2133C31.2174 43.4292 31.2174 43.5912 31.2353 43.6992C31.2353 43.8072 31.2711 43.8972 31.3069 43.9872C31.3785 44.1492 31.4859 44.2931 31.6291 44.3831C31.7723 44.4731 31.9155 44.5271 32.0945 44.5271C32.3988 44.5271 32.6136 44.4191 32.7747 44.1852C32.9179 43.9512 32.9895 43.6092 32.9895 43.1233V40.4056H33.3833V43.2313C33.3833 43.8072 33.2759 44.2392 33.079 44.5271C32.8642 44.8151 32.5599 44.9591 32.1303 44.9591C31.6828 44.9591 31.3427 44.8151 31.1458 44.5451C30.931 44.2751 30.8236 43.8432 30.8236 43.2493V40.4236V40.4056ZM28.4966 40.4056H28.8904V43.4112C28.8904 43.6812 28.8904 43.8792 28.8546 44.0232C28.8367 44.1672 28.783 44.2931 28.7293 44.4011C28.6398 44.5811 28.5145 44.7071 28.3534 44.8151C28.1923 44.9051 28.0133 44.9591 27.8164 44.9591C27.5121 44.9591 27.2794 44.8511 27.1004 44.6351C26.9214 44.4191 26.8319 44.1312 26.8319 43.7892H27.2257C27.2257 44.0052 27.2973 44.1852 27.4226 44.3111C27.53 44.4551 27.6732 44.5091 27.8522 44.5091C28.1028 44.5091 28.2639 44.4191 28.3713 44.2572C28.4787 44.0772 28.5324 43.7352 28.5324 43.2313V40.4236L28.4966 40.4056ZM22.8044 42.7273H25.2925C25.2567 43.3752 25.0419 43.9152 24.666 44.3291C24.2722 44.7431 23.8068 44.9591 23.234 44.9591C22.6612 44.9591 22.16 44.7431 21.7841 44.2931C21.3903 43.8432 21.1934 43.2853 21.1934 42.6193C21.1934 42.3134 21.2471 42.0074 21.3545 41.7374C21.4619 41.4495 21.623 41.2155 21.8199 40.9815C22.0168 40.7655 22.2316 40.6036 22.4822 40.4956C22.7149 40.3876 22.9834 40.3336 23.2877 40.3336C23.6815 40.3336 24.0216 40.4416 24.3438 40.6395C24.6481 40.8555 24.8987 41.1435 25.0956 41.5394H24.6123C24.4154 41.2695 24.2185 41.0715 24.0037 40.9455C23.7889 40.8195 23.5562 40.7475 23.2877 40.7475C22.8223 40.7475 22.4285 40.9275 22.1242 41.3055C21.802 41.6654 21.6409 42.1154 21.6409 42.6193C21.6409 43.1593 21.802 43.6272 22.1242 43.9872C22.4464 44.3471 22.8402 44.5271 23.3056 44.5271C23.6815 44.5271 24.0037 44.4011 24.2901 44.1312C24.5765 43.8792 24.7734 43.5372 24.8629 43.1233H22.8402V42.7273H22.8044ZM19.0454 44.3111L18.9917 40.3876H19.3855V44.8331H18.9022L16.7005 40.9095L16.7363 44.8331H16.3426V40.3876H16.8258L19.0275 44.3111H19.0454ZM13.7829 43.0513L13.0132 40.8195L12.2614 43.0513H13.7829ZM11.6528 44.8511H11.2411L12.7984 40.4056H13.2817L14.839 44.8511H14.4094L13.9261 43.4472H12.1361L11.6528 44.8511ZM8.01909 40.4056L8.82458 44.0592L9.82698 40.4056H10.2208L8.96778 44.8511H8.64558L7.84009 41.2155L7.03459 44.8511H6.71239L5.4594 40.4056H5.8532L6.85559 44.0592L7.67899 40.4056H8.03699H8.01909ZM1.61092 42.7273H4.1169C4.0811 43.3752 3.86631 43.9152 3.49041 44.3291C3.09661 44.7431 2.63121 44.9591 2.05841 44.9591C1.48562 44.9591 0.984418 44.7431 0.60852 44.2931C0.214721 43.8432 0.0178223 43.2853 0.0178223 42.6193C0.0178223 42.3134 0.071522 42.0074 0.178922 41.7374C0.286321 41.4495 0.44742 41.2155 0.64432 40.9815C0.841219 40.7655 1.05602 40.6036 1.30662 40.4956C1.53932 40.3876 1.80781 40.3336 2.11211 40.3336C2.50591 40.3336 2.84601 40.4416 3.16821 40.6395C3.47251 40.8555 3.72311 41.1435 3.92001 41.5394H3.43671C3.23981 41.2695 3.04291 41.0715 2.82811 40.9455C2.61331 40.8195 2.38061 40.7475 2.11211 40.7475C1.64672 40.7475 1.25292 40.9275 0.948618 41.3055C0.62642 41.6654 0.46532 42.1154 0.46532 42.6193C0.46532 43.1593 0.62642 43.6272 0.948618 43.9872C1.27082 44.3471 1.66462 44.5271 2.13001 44.5271C2.48801 44.5271 2.82811 44.4011 3.11451 44.1312C3.40091 43.8792 3.59781 43.5372 3.68731 43.1233H1.61092V42.7273ZM0.107322 45.643H33.4191V46.3449H0.107322V45.643ZM28.6756 47.9827H29.7496V53.3462C29.7496 54.1201 29.857 54.642 30.0539 54.93C30.2508 55.2359 30.5909 55.3799 31.0742 55.3799C31.5575 55.3799 31.8618 55.2359 32.0408 54.93C32.2377 54.624 32.3272 54.1021 32.3272 53.3462V47.9827H33.4012V53.3282C33.4012 53.9041 33.3654 54.336 33.3117 54.642C33.258 54.948 33.1685 55.2179 33.0253 55.4339C32.7926 55.8119 32.5241 56.0999 32.2019 56.2978C31.8797 56.4778 31.5038 56.5858 31.0742 56.5858C30.5909 56.5858 30.1971 56.4958 29.8749 56.3158C29.5527 56.1358 29.2663 55.8479 29.0336 55.4519C28.9083 55.2359 28.8009 54.984 28.7472 54.696C28.6935 54.408 28.6577 53.9581 28.6577 53.3282V47.9827H28.6756ZM23.1624 52.1583H27.7627C27.709 53.4721 27.3331 54.534 26.635 55.3619C25.9369 56.1718 25.0419 56.5858 23.9679 56.5858C23.413 56.5858 22.8939 56.4598 22.4285 56.2258C21.9631 55.9919 21.5335 55.6139 21.1576 55.146C20.8354 54.75 20.6027 54.3 20.4416 53.7961C20.2805 53.2922 20.191 52.7522 20.191 52.1583C20.191 51.5643 20.2805 51.0064 20.4953 50.4845C20.6922 49.9625 20.9786 49.4766 21.3545 49.0626C21.7125 48.6487 22.1242 48.3427 22.5538 48.1447C23.0013 47.9467 23.5025 47.8388 24.0395 47.8388C24.7913 47.8388 25.4536 48.0367 26.0085 48.4327C26.5813 48.8286 26.993 49.4046 27.2973 50.1425H25.9727C25.7221 49.7825 25.4357 49.5126 25.0956 49.3326C24.7555 49.1526 24.3796 49.0626 23.95 49.0626C23.592 49.0626 23.2698 49.1346 22.9476 49.2786C22.6254 49.4226 22.3569 49.6386 22.1063 49.9265C21.8557 50.2325 21.6588 50.5745 21.5156 50.9704C21.3724 51.3664 21.3008 51.7623 21.3008 52.1763C21.3008 52.6082 21.3724 53.0222 21.4977 53.4181C21.623 53.8141 21.8199 54.1561 22.0526 54.426C22.3032 54.732 22.6075 54.966 22.9297 55.128C23.2698 55.2899 23.6099 55.3799 23.95 55.3799C24.5049 55.3799 25.0061 55.2179 25.4357 54.876C25.8653 54.534 26.2233 54.0301 26.5097 53.3642H23.1445V52.1763L23.1624 52.1583ZM19.0454 53.7781H16.5036V52.7162H19.0454V53.7781ZM12.5836 56.4238H11.5096V47.9827H12.5836V56.4238ZM12.6194 52.2303L15.4118 47.9827H16.7005L13.8187 52.1763L16.6289 56.4238H15.2865L12.6194 52.2303ZM5.6384 47.9827H6.71239V53.3462C6.71239 54.1201 6.81979 54.642 7.01669 54.93C7.21359 55.2359 7.55369 55.3799 8.03699 55.3799C8.50238 55.3799 8.82458 55.2359 9.00358 54.93C9.20048 54.624 9.28998 54.1021 9.28998 53.3462V47.9827H10.364V53.3282C10.364 53.9041 10.3461 54.336 10.2745 54.642C10.2208 54.948 10.1313 55.2179 9.98808 55.4339C9.77328 55.8119 9.48688 56.0999 9.16468 56.2978C8.84248 56.4778 8.46658 56.5858 8.03699 56.5858C7.55369 56.5858 7.15989 56.4958 6.83769 56.3158C6.51549 56.1358 6.22909 55.8479 5.9964 55.4519C5.8532 55.2359 5.7637 54.984 5.71 54.696C5.6563 54.408 5.6205 53.9581 5.6205 53.3282V47.9827H5.6384ZM0.214721 56.4238H2.89971C3.25771 56.4238 3.68731 56.2438 4.1706 55.8479C4.6539 55.4699 4.8866 54.786 4.8866 53.7961C4.8866 53.0582 4.5823 52.3743 3.95581 51.7803C4.3675 51.1684 4.5823 50.6105 4.5823 50.1605C4.5823 49.6206 4.4212 49.1166 4.1169 48.6667C3.81261 48.2167 3.34721 47.9827 2.75651 47.9827H0.214721V56.4058V56.4238ZM2.75651 49.2966C2.98921 49.2966 3.18611 49.4046 3.31141 49.6026C3.43671 49.8005 3.49041 50.0345 3.49041 50.2685C3.49041 50.5025 3.43671 50.7364 3.31141 50.9344C3.18611 51.1324 3.00711 51.2404 2.75651 51.2404H1.30662V49.2966H2.75651ZM2.88181 52.5362C3.11451 52.5362 3.32931 52.6442 3.52621 52.8782C3.72311 53.1122 3.81261 53.4181 3.81261 53.8141C3.81261 54.2101 3.72311 54.516 3.52621 54.75C3.32931 54.984 3.11451 55.092 2.88181 55.092H1.30662V52.5182H2.88181V52.5362Z" fill="#00A651"/>
</g>
<defs>
<clipPath id="clip0_291_312">
<rect width="269" height="73" fill="white"/>
</clipPath>
</defs>
</svg>
